#!OML:ASF H:\Dans Jumps\Project 1\Capture day 1\Session 1\subject.ASF
:FULLY-SPECIFIED
:DEGREES
197
root 0.325217 19.6906 -10.1485 11.2303 1.08153 -1.16676
lowerback 6.88099 0.261191 -1.36111
upperback 6.82453 0.257549 1.83992
thorax 3.19211 0.0280553 2.65574
lowerneck -9.55447 0.143103 -2.43418
upperneck 22.7214 0.649744 0.0542504
head 8.64074 0.108586 0.496472
rclavicle 4.17448e-015 -5.96354e-016
rhumerus -2.37397 -7.06283 -86.2673
rradius 28.3698
rwrist 27.2538
rhand -23.3507 -24.2997
rfingers 7.12502
rthumb 3.10438 -54.2568
lclavicle 4.17448e-015 -5.96354e-016
lhumerus -0.82044 -7.06693 90.2773
lradius 26.3912
lwrist 21.3872
lhand -30.4484 -11.7427
lfingers 7.12502
lthumb -3.75046 18.2041
rfemur -24.6366 -3.84363 18.1574
rtibia 42.8514
rfoot 23.2162 -5.34407
rtoes 23.3819
lfemur -23.9061 5.25625 -16.2291
ltibia 40.8077
lfoot 28.2955 1.59779
ltoes 4.50693
198
root 0.32827 19.8346 -10.0171 10.9474 1.11704 -1.14967
lowerback 6.77896 0.231177 -1.40517
upperback 6.84718 0.21694 1.81931
thorax 3.27493 0.00534439 2.66127
lowerneck -9.4 0.145446 -2.41904
upperneck 22.9538 0.640027 0.0875572
head 8.69143 0.106543 0.504579
rclavicle 4.77083e-015 7.15625e-015
rhumerus -2.21638 -6.99312 -86.4818
rradius 28.5166
rwrist 27.2406
rhand -23.4259 -24.2513
rfingers 7.12502
rthumb 3.03184 -54.2095
lclavicle 4.77083e-015 7.15625e-015
lhumerus -0.737606 -7.1676 90.5583
lradius 26.8128
lwrist 21.7014
lhand -30.4089 -11.9252
lfingers 7.12502
lthumb -3.71238 18.0223
rfemur -25.144 -3.84293 18.2088
rtibia 43.4854
rfoot 23.1142 -5.04942
rtoes 23.9982
lfemur -24.4235 5.1595 -16.2753
ltibia 41.5444
lfoot 27.9086 1.64996
ltoes 5.72577
199
root 0.33025 19.9655 -9.8921 10.6878 1.19169 -1.13479
lowerback 6.77188 0.195013 -1.46573
upperback 6.85655 0.166811 1.81766
thorax 3.29176 -0.0224011 2.69567
lowerneck -9.29573 0.14785 -2.39452
upperneck 23.1739 0.634105 0.102952
head 8.74745 0.105364 0.505551
rclavicle -1.59028e-015 -1.82882e-014
rhumerus -2.07493 -7.02364 -86.6806
rradius 28.5892
rwrist 27.3196
rhand -23.4456 -24.2684
rfingers 7.12502
rthumb 3.01276 -54.2269
lclavicle -1.59028e-015 -1.82882e-014
lhumerus -0.653855 -7.1501 90.8803
lradius 27.1325
lwrist 21.7606
lhand -30.3229 -11.9677
lfingers 7.12502
lthumb -3.62926 17.9812
rfemur -25.7731 -3.88342 18.2994
rtibia 44.1657
rfoot 22.6269 -4.81922
rtoes 23.9369
lfemur -25.1134 5.11877 -16.3524
ltibia 42.4023
lfoot 27.1225 1.59853
ltoes 6.37118
200
root 0.3313 20.0844 -9.77273 10.4299 1.30614 -1.12768
lowerback 6.8754 0.152471 -1.52929
upperback 6.85741 0.107121 1.83167
thorax 3.23901 -0.0545137 2.74815
lowerneck -9.25859 0.15125 -2.35896
upperneck 23.4105 0.633229 0.102886
head 8.82186 0.105734 0.500182
rclavicle 4.96962e-015 1.23246e-014
rhumerus -1.95318 -7.15285 -86.8695
rradius 28.5854
rwrist 27.4619
rhand -23.4209 -24.313
rfingers 7.12502
rthumb 3.03659 -54.2712
lclavicle 4.96962e-015 1.23246e-014
lhumerus -0.561548 -7.02793 91.2364
lradius 27.3443
lwrist 21.6312
lhand -30.1825 -11.9017
lfingers 7.12502
lthumb -3.49366 18.0494
rfemur -26.4678 -3.9705 18.4283
rtibia 44.8247
rfoot 22.0328 -4.77552
rtoes 23.7519
lfemur -25.908 5.09975 -16.4459
ltibia 43.2777
lfoot 26.2846 1.52541
ltoes 6.83897
201
root 0.331708 20.1926 -9.65736 10.1533 1.44718 -1.13463
lowerback 7.08816 0.108435 -1.58082
upperback 6.86116 0.0448565 1.85427
thorax 3.12909 -0.0869192 2.80304
lowerneck -9.30547 0.15467 -2.30212
upperneck 23.6796 0.634738 0.0874918
head 8.92359 0.107146 0.486583
rclavicle -2.28602e-015 -3.18055e-015
rhumerus -1.85706 -7.36021 -87.052
rradius 28.5246
rwrist 27.6195
rhand -23.3486 -24.3802
rfingers 7.12502
rthumb 3.10644 -54.3373
lclavicle -2.28602e-015 -3.18055e-015
lhumerus -0.457332 -6.82991 91.6101
lradius 27.4586
lwrist 21.397
lhand -29.9936 -11.7728
lfingers 7.12502
lthumb -3.3113 18.1812
rfemur -27.1713 -4.10839 18.5948
rtibia 45.4049
rfoot 21.3909 -4.90504
rtoes 23.5442
lfemur -26.7331 5.09699 -16.5477
ltibia 44.0747
lfoot 25.5583 1.50283
ltoes 7.3068
202
root 0.331614 20.2909 -9.54465 9.84933 1.61046 -1.16288
lowerback 7.39801 0.0649687 -1.60234
upperback 6.87087 -0.0162545 1.88003
thorax 2.9718 -0.117025 2.84477
lowerneck -9.40216 0.155689 -2.23552
upperneck 23.9595 0.631898 0.0746771
head 9.03886 0.10759 0.471888
rclavicle -1.39149e-015 1.43125e-014
rhumerus -1.79216 -7.64082 -87.2296
rradius 28.4099
rwrist 27.7727
rhand -23.279 -24.4215
rfingers 7.12502
rthumb 3.17371 -54.3777
lclavicle -1.39149e-015 1.43125e-014
lhumerus -0.348012 -6.60293 91.985
lradius 27.4963
lwrist 21.1581
lhand -29.7722 -11.6402
lfingers 7.12502
lthumb -3.09749 18.317
rfemur -27.8447 -4.30689 18.8028
rtibia 45.8647
rfoot 20.7455 -5.12374
rtoes 23.6056
lfemur -27.5316 5.11634 -16.6492
ltibia 44.7133
lfoot 24.874 1.58695
ltoes 7.70662
203
root 0.331077 20.3799 -9.43318 9.52283 1.78294 -1.21652
lowerback 7.78072 0.0268962 -1.58478
upperback 6.88619 -0.0687779 1.90224
thorax 2.77976 -0.140798 2.86113
lowerneck -9.55517 0.152255 -2.14779
upperneck 24.261 0.620369 0.0618947
head 9.17299 0.105752 0.452872
rclavicle -1.78906e-015 -3.37934e-015
rhumerus -1.7665 -7.9805 -87.4063
rradius 28.256
rwrist 27.9132
rhand -23.2027 -24.4462
rfingers 7.12502
rthumb 3.24735 -54.4012
lclavicle -1.78906e-015 -3.37934e-015
lhumerus -0.230941 -6.38498 92.346
lradius 27.462
lwrist 20.985
lhand -29.5349 -11.4821
lfingers 7.12502
lthumb -2.86826 18.4783
rfemur -28.474 -4.55936 19.0521
rtibia 46.1818
rfoot 19.9577 -5.34815
rtoes 23.6063
lfemur -28.273 5.17745 -16.7472
ltibia 45.1353
lfoot 24.1164 1.79293
ltoes 8.02847
204
root 0.330323 20.4598 -9.32132 9.18395 1.94448 -1.28911
lowerback 8.20522 -0.00224591 -1.53568
upperback 6.90463 -0.107644 1.91572
thorax 2.56733 -0.156137 2.85063
lowerneck -9.73253 0.142183 -2.05806
upperneck 24.5578 0.594662 0.0683276
head 9.31076 0.0997592 0.438549
rclavicle 2.28602e-015 5.76476e-015
rhumerus -1.78406 -8.34909 -87.5806
rradius 28.0719
rwrist 28.0529
rhand -23.139 -24.4611
rfingers 7.12502
rthumb 3.30886 -54.4152
lclavicle 2.28602e-015 5.76476e-015
lhumerus -0.114051 -6.20549 92.6783
lradius 27.3748
lwrist 20.9124
lhand -29.2971 -11.336
lfingers 7.12502
lthumb -2.6386 18.6274
rfemur -29.0597 -4.84649 19.3285
rtibia 46.3523
rfoot 19.008 -5.50534
rtoes 23.4644
lfemur -28.9414 5.29948 -16.8484
ltibia 45.3033
lfoot 23.2477 2.09892
ltoes 8.36571
205
root 0.329338 20.5306 -9.20845 8.85783 2.09331 -1.3743
lowerback 8.63354 -0.0236151 -1.46361
upperback 6.91764 -0.134173 1.9207
thorax 2.34663 -0.164192 2.81816
lowerneck -9.91701 0.126265 -1.97124
upperneck 24.8434 0.55614 0.0936792
head 9.44671 0.0899486 0.429743
rclavicle -5.96354e-016 -2.78299e-015
rhumerus -1.85171 -8.7266 -87.7471
rradius 27.8709
rwrist 28.2149
rhand -23.0943 -24.4595
rfingers 7.12502
rthumb 3.352 -54.4128
lclavicle -5.96354e-016 -2.78299e-015
lhumerus 0.00315581 -6.0939 92.9746
lradius 27.235
lwrist 20.9455
lhand -29.0565 -11.1821
lfingers 7.12502
lthumb -2.4063 18.784
rfemur -29.6279 -5.15862 19.6233
rtibia 46.3873
rfoot 17.9288 -5.57379
rtoes 23.1254
lfemur -29.5536 5.48595 -16.9562
ltibia 45.2027
lfoot 22.2549 2.46327
ltoes 8.59
206
root 0.327924 20.5912 -9.09469 8.5772 2.23467 -1.46006
lowerback 9.0312 -0.042275 -1.38602
upperback 6.91175 -0.155659 1.91823
thorax 2.12305 -0.16928 2.77478
lowerneck -10.0912 0.10789 -1.89331
upperneck 25.1104 0.510654 0.135623
head 9.57478 0.0783584 0.427264
rclavicle 6.65929e-015 -1.09332e-014
rhumerus -1.97486 -9.08675 -87.9026
rradius 27.6648
rwrist 28.4137
rhand -23.0674 -24.4638
rfingers 7.12502
rthumb 3.37799 -54.4168
lclavicle 6.65929e-015 -1.09332e-014
lhumerus 0.113744 -6.0325 93.2377
lradius 27.0417
lwrist 21.0212
lhand -28.8128 -11.0298
lfingers 7.12502
lthumb -2.17096 18.9389
rfemur -30.2191 -5.4806 19.9224
rtibia 46.3086
rfoot 16.7957 -5.57672
rtoes 22.6546
lfemur -30.147 5.72784 -17.0804
ltibia 44.8375
lfoot 21.1803 2.82626
ltoes 8.66125
207
root 0.326293 20.6409 -8.97932 8.35581 2.36407 -1.53701
lowerback 9.37171 -0.0585413 -1.31993
upperback 6.88339 -0.173647 1.91297
thorax 1.90748 -0.173012 2.73479
lowerneck -10.2478 0.0891181 -1.83384
upperneck 25.3588 0.463481 0.191795
head 9.69342 0.0662813 0.432547
rclavicle -4.37326e-015 -2.32578e-014
rhumerus -2.1517 -9.405 -88.0352
rradius 27.4586
rwrist 28.6481
rhand -23.0627 -24.463
rfingers 7.12502
rthumb 3.38254 -54.4159
lclavicle -4.37326e-015 -2.32578e-014
lhumerus 0.208856 -5.99582 93.4782
lradius 26.8033
lwrist 21.054
lhand -28.5631 -10.8827
lfingers 7.12502
lthumb -1.92974 19.0883
rfemur -30.8504 -5.80029 20.2125
rtibia 46.1402
rfoot 15.6681 -5.50603
rtoes 22.0505
lfemur -30.7357 6.01842 -17.2284
ltibia 44.2281
lfoot 20.0395 3.13373
ltoes 8.54591
208
root 0.324382 20.679 -8.86223 8.20101 2.48108 -1.59701
lowerback 9.64015 -0.0743053 -1.28184
upperback 6.83192 -0.192068 1.90808
thorax 1.70762 -0.178033 2.71091
lowerneck -10.3993 0.0755869 -1.78445
upperneck 25.6047 0.426039 0.243584
head 9.81067 0.0575511 0.439097
rclavicle 2.48481e-015 -1.39149e-015
rhumerus -2.37718 -9.67391 -88.1415
rradius 27.2573
rwrist 28.9142
rhand -23.0521 -24.4782
rfingers 7.12502
rthumb 3.3928 -54.431
lclavicle 2.48481e-015 -1.39149e-015
lhumerus 0.294045 -5.96085 93.7021
lradius 26.5134
lwrist 20.9713
lhand -28.2967 -10.701
lfingers 7.12502
lthumb -1.67251 19.2722
rfemur -31.5314 -6.1013 20.4811
rtibia 45.9041
rfoot 14.592 -5.37117
rtoes 21.3555
lfemur -31.3333 6.34294 -17.405
ltibia 43.4066
lfoot 18.8601 3.33517
ltoes 8.24586
